<svg width="32" height="32" viewBox="0 0 32 32" fill="none" xmlns="http://www.w3.org/2000/svg">
  <!-- Background circle -->
  <circle cx="16" cy="16" r="16" fill="#6366f1"/>
  
  <!-- Envelope shape -->
  <path d="M8 12L16 18L24 12M8 12V20C8 21.1046 8.89543 22 10 22H22C23.1046 22 24 21.1046 24 20V12M8 12C8 10.8954 8.89543 10 10 10H22C23.1046 10 24 10.8954 24 12" 
        stroke="white" 
        stroke-width="2" 
        stroke-linecap="round" 
        stroke-linejoin="round"/>
  
  <!-- Blockchain nodes -->
  <circle cx="12" cy="8" r="2" fill="white" opacity="0.8"/>
  <circle cx="20" cy="8" r="2" fill="white" opacity="0.8"/>
  <circle cx="12" cy="24" r="2" fill="white" opacity="0.8"/>
  <circle cx="20" cy="24" r="2" fill="white" opacity="0.8"/>
  
  <!-- Connection lines -->
  <line x1="14" y1="8" x2="18" y2="8" stroke="white" stroke-width="1" opacity="0.6"/>
  <line x1="14" y1="24" x2="18" y2="24" stroke="white" stroke-width="1" opacity="0.6"/>
  <line x1="12" y1="10" x2="12" y2="22" stroke="white" stroke-width="1" opacity="0.6"/>
  <line x1="20" y1="10" x2="20" y2="22" stroke="white" stroke-width="1" opacity="0.6"/>
</svg>